<svg width="22" height="22" viewBox="0 0 22 22" fill="none" xmlns="http://www.w3.org/2000/svg">
<path d="M8.25 2.75C8.92988 2.75 9.59448 2.95161 10.1598 3.32932C10.7251 3.70704 11.1657 4.2439 11.4258 4.87203C11.686 5.50015 11.7541 6.19131 11.6215 6.85812C11.4888 7.52493 11.1614 8.13744 10.6807 8.61818C10.1999 9.09892 9.58744 9.42631 8.92063 9.55895C8.25382 9.69159 7.56265 9.62351 6.93453 9.36334C6.30641 9.10316 5.76954 8.66257 5.39183 8.09727C5.01411 7.53198 4.8125 6.86737 4.8125 6.1875C4.8125 5.27582 5.17467 4.40148 5.81932 3.75682C6.46398 3.11216 7.33832 2.75 8.25 2.75ZM8.25 1.375C7.29818 1.375 6.36773 1.65725 5.57632 2.18605C4.78491 2.71486 4.16808 3.46647 3.80383 4.34584C3.43959 5.22521 3.34428 6.19284 3.52997 7.12637C3.71566 8.05991 4.17401 8.91741 4.84705 9.59045C5.52009 10.2635 6.3776 10.7218 7.31113 10.9075C8.24466 11.0932 9.2123 10.9979 10.0917 10.6337C10.971 10.2694 11.7226 9.65259 12.2515 8.86118C12.7803 8.06977 13.0625 7.13932 13.0625 6.1875C13.0625 4.91115 12.5555 3.68707 11.653 2.78455C10.7504 1.88203 9.52636 1.375 8.25 1.375Z" fill="#553B76"/>
<path d="M15.125 20.625H13.75V17.1875C13.75 16.2758 13.3878 15.4015 12.7432 14.7568C12.0985 14.1122 11.2242 13.75 10.3125 13.75H6.1875C5.27582 13.75 4.40148 14.1122 3.75682 14.7568C3.11216 15.4015 2.75 16.2758 2.75 17.1875V20.625H1.375V17.1875C1.375 15.9111 1.88203 14.6871 2.78455 13.7845C3.68707 12.882 4.91115 12.375 6.1875 12.375H10.3125C11.5889 12.375 12.8129 12.882 13.7155 13.7845C14.618 14.6871 15.125 15.9111 15.125 17.1875V20.625Z" fill="#553B76"/>
<path d="M15.125 2.75H22V4.125H15.125V2.75Z" fill="#553B76"/>
<path d="M15.125 6.1875H22V7.5625H15.125V6.1875Z" fill="#553B76"/>
<path d="M15.125 9.625H19.9375V11H15.125V9.625Z" fill="#553B76"/>
</svg>
