<svg width="18" height="20" viewBox="0 0 18 20" fill="none" xmlns="http://www.w3.org/2000/svg">
<path d="M2 20.0002H16C17.103 20.0002 18 19.1032 18 18.0002V9.0002C18.0001 8.86887 17.9743 8.7388 17.924 8.61747C17.8738 8.49614 17.8 8.38594 17.707 8.2932L9.707 0.293201C9.61421 0.200255 9.50401 0.126518 9.38269 0.0762068C9.26138 0.0258961 9.13133 0 9 0C8.86867 0 8.73862 0.0258961 8.61731 0.0762068C8.49599 0.126518 8.38579 0.200255 8.293 0.293201L0.293001 8.2932C0.200002 8.38594 0.126244 8.49614 0.0759616 8.61747C0.0256795 8.7388 -0.000135141 8.86887 5.32017e-07 9.0002V18.0002C5.32017e-07 19.1032 0.897 20.0002 2 20.0002ZM7 18.0002V13.0002H11V18.0002H7ZM2 9.4142L9 2.4142L16 9.4142L16.001 18.0002H13V13.0002C13 11.8972 12.103 11.0002 11 11.0002H7C5.897 11.0002 5 11.8972 5 13.0002V18.0002H2V9.4142Z" fill="#553B76"/>
</svg>
